solid TinkerBoard
facet normal 0.0 0.0 -1.0
  outer loop
    vertex 977.8262381098555 264.0443145848477 -5.009266748153425e-30
    vertex 969.8262381098555 228.04431458484777 -5.009266748153425e-30
    vertex 969.8262381098555 264.0443145848477 -5.009266748153425e-30
  endloop
endfacet
facet normal 0.0 0.0 -1.0
  outer loop
    vertex 969.8262381098555 228.04431458484777 -5.009266748153425e-30
    vertex 958.8262381098555 223.04431458484777 -5.009266748153425e-30
    vertex 958.8262381098555 228.04431458484777 -5.009266748153425e-30
  endloop
endfacet
facet normal 0.0 0.0 -1.0
  outer loop
    vertex 958.8262381098555 223.04431458484777 -5.009266748153425e-30
    vertex 969.8262381098555 228.04431458484777 -5.009266748153425e-30
    vertex 988.8262381098555 223.04431458484777 -5.009266748153425e-30
  endloop
endfacet
facet normal 0.0 0.0 -1.0
  outer loop
    vertex 988.8262381098555 223.04431458484777 -5.009266748153425e-30
    vertex 969.8262381098555 228.04431458484777 -5.009266748153425e-30
    vertex 977.8262381098555 228.04431458484777 -5.009266748153425e-30
  endloop
endfacet
facet normal 0.0 0.0 -1.0
  outer loop
    vertex 977.8262381098555 228.04431458484777 -5.009266748153425e-30
    vertex 969.8262381098555 228.04431458484777 -5.009266748153425e-30
    vertex 977.8262381098555 264.0443145848477 -5.009266748153425e-30
  endloop
endfacet
facet normal 0.0 0.0 -1.0
  outer loop
    vertex 988.8262381098555 223.04431458484777 -5.009266748153425e-30
    vertex 977.8262381098555 228.04431458484777 -5.009266748153425e-30
    vertex 988.8262381098555 228.04431458484777 -5.009266748153425e-30
  endloop
endfacet
facet normal 1.0 0.0 0.0
  outer loop
    vertex 988.8262381098555 228.04431458484777 -5.009266748153425e-30
    vertex 988.8262381098555 223.04431458484777 1.9999999999999998
    vertex 988.8262381098555 223.04431458484777 -5.009266748153425e-30
  endloop
endfacet
facet normal 1.0 0.0 0.0
  outer loop
    vertex 988.8262381098555 223.04431458484777 1.9999999999999998
    vertex 988.8262381098555 228.04431458484777 -5.009266748153425e-30
    vertex 988.8262381098555 228.04431458484777 1.9999999999999998
  endloop
endfacet
facet normal 0.0 1.0 0.0
  outer loop
    vertex 977.8262381098555 228.04431458484777 1.9999999999999998
    vertex 988.8262381098555 228.04431458484777 -5.009266748153425e-30
    vertex 977.8262381098555 228.04431458484777 -5.009266748153425e-30
  endloop
endfacet
facet normal 0.0 1.0 0.0
  outer loop
    vertex 988.8262381098555 228.04431458484777 -5.009266748153425e-30
    vertex 977.8262381098555 228.04431458484777 1.9999999999999998
    vertex 988.8262381098555 228.04431458484777 1.9999999999999998
  endloop
endfacet
facet normal 1.0 0.0 0.0
  outer loop
    vertex 977.8262381098555 264.0443145848477 -5.009266748153425e-30
    vertex 977.8262381098555 228.04431458484777 1.9999999999999998
    vertex 977.8262381098555 228.04431458484777 -5.009266748153425e-30
  endloop
endfacet
facet normal 1.0 0.0 0.0
  outer loop
    vertex 977.8262381098555 228.04431458484777 1.9999999999999998
    vertex 977.8262381098555 264.0443145848477 -5.009266748153425e-30
    vertex 977.8262381098555 264.0443145848477 1.9999999999999998
  endloop
endfacet
facet normal -1.0 0.0 0.0
  outer loop
    vertex 958.8262381098555 228.04431458484777 1.9999999999999998
    vertex 958.8262381098555 223.04431458484777 -5.009266748153425e-30
    vertex 958.8262381098555 223.04431458484777 1.9999999999999998
  endloop
endfacet
facet normal -1.0 0.0 0.0
  outer loop
    vertex 958.8262381098555 223.04431458484777 -5.009266748153425e-30
    vertex 958.8262381098555 228.04431458484777 1.9999999999999998
    vertex 958.8262381098555 228.04431458484777 -5.009266748153425e-30
  endloop
endfacet
facet normal 0.0 0.0 1.0
  outer loop
    vertex 988.8262381098555 223.04431458484777 1.9999999999999998
    vertex 958.8262381098555 228.04431458484777 1.9999999999999998
    vertex 958.8262381098555 223.04431458484777 1.9999999999999998
  endloop
endfacet
facet normal 0.0 0.0 1.0
  outer loop
    vertex 958.8262381098555 228.04431458484777 1.9999999999999998
    vertex 988.8262381098555 223.04431458484777 1.9999999999999998
    vertex 969.8262381098555 228.04431458484777 1.9999999999999998
  endloop
endfacet
facet normal 0.0 0.0 1.0
  outer loop
    vertex 969.8262381098555 228.04431458484777 1.9999999999999998
    vertex 988.8262381098555 223.04431458484777 1.9999999999999998
    vertex 977.8262381098555 228.04431458484777 1.9999999999999998
  endloop
endfacet
facet normal 0.0 0.0 1.0
  outer loop
    vertex 969.8262381098555 228.04431458484777 1.9999999999999998
    vertex 977.8262381098555 228.04431458484777 1.9999999999999998
    vertex 969.8262381098555 264.0443145848477 1.9999999999999998
  endloop
endfacet
facet normal 0.0 0.0 1.0
  outer loop
    vertex 977.8262381098555 228.04431458484777 1.9999999999999998
    vertex 988.8262381098555 223.04431458484777 1.9999999999999998
    vertex 988.8262381098555 228.04431458484777 1.9999999999999998
  endloop
endfacet
facet normal 0.0 0.0 1.0
  outer loop
    vertex 977.8262381098555 264.0443145848477 1.9999999999999998
    vertex 969.8262381098555 264.0443145848477 1.9999999999999998
    vertex 977.8262381098555 228.04431458484777 1.9999999999999998
  endloop
endfacet
facet normal -1.0 0.0 0.0
  outer loop
    vertex 969.8262381098555 264.0443145848477 1.9999999999999998
    vertex 969.8262381098555 228.04431458484777 -5.009266748153425e-30
    vertex 969.8262381098555 228.04431458484777 1.9999999999999998
  endloop
endfacet
facet normal -1.0 0.0 0.0
  outer loop
    vertex 969.8262381098555 228.04431458484777 -5.009266748153425e-30
    vertex 969.8262381098555 264.0443145848477 1.9999999999999998
    vertex 969.8262381098555 264.0443145848477 -5.009266748153425e-30
  endloop
endfacet
facet normal -0.0 -1.0 -0.0
  outer loop
    vertex 988.8262381098555 223.04431458484777 1.9999999999999998
    vertex 958.8262381098555 223.04431458484777 -5.009266748153425e-30
    vertex 988.8262381098555 223.04431458484777 -5.009266748153425e-30
  endloop
endfacet
facet normal -0.0 -1.0 -0.0
  outer loop
    vertex 958.8262381098555 223.04431458484777 -5.009266748153425e-30
    vertex 988.8262381098555 223.04431458484777 1.9999999999999998
    vertex 958.8262381098555 223.04431458484777 1.9999999999999998
  endloop
endfacet
facet normal 0.0 1.0 0.0
  outer loop
    vertex 958.8262381098555 228.04431458484777 1.9999999999999998
    vertex 969.8262381098555 228.04431458484777 -5.009266748153425e-30
    vertex 958.8262381098555 228.04431458484777 -5.009266748153425e-30
  endloop
endfacet
facet normal 0.0 1.0 0.0
  outer loop
    vertex 969.8262381098555 228.04431458484777 -5.009266748153425e-30
    vertex 958.8262381098555 228.04431458484777 1.9999999999999998
    vertex 969.8262381098555 228.04431458484777 1.9999999999999998
  endloop
endfacet
facet normal 0.0 1.0 0.0
  outer loop
    vertex 969.8262381098555 264.0443145848477 1.9999999999999998
    vertex 977.8262381098555 264.0443145848477 -5.009266748153425e-30
    vertex 969.8262381098555 264.0443145848477 -5.009266748153425e-30
  endloop
endfacet
facet normal 0.0 1.0 0.0
  outer loop
    vertex 977.8262381098555 264.0443145848477 -5.009266748153425e-30
    vertex 969.8262381098555 264.0443145848477 1.9999999999999998
    vertex 977.8262381098555 264.0443145848477 1.9999999999999998
  endloop
endfacet
endsolid TinkerBoard
